Coordinates
version=1
nRows=10
nColumns=27
inDegrees=yes

Units are S.I. units (second, meters, Newtons, ...)
If the header above contains a line with 'inDegrees', this indicates whether rotational values are in degrees (yes) or radians (no).

endheader
time	pelvis_rotation	pelvis_tilt	pelvis_list	pelvis_tx	pelvis_ty	pelvis_tz	hip_flexion_r	hip_adduction_r	hip_rotation_r	knee_angle_r	knee_rotation_r	knee_adduction_r	knee_angle_r_beta	ankle_angle_r	subtalar_angle_r	mtp_angle_r	hip_flexion_l	hip_adduction_l	hip_rotation_l	knee_angle_l	knee_rotation_l	knee_adduction_l	knee_angle_l_beta	ankle_angle_l	subtalar_angle_l	mtp_angle_l
      5.33500000	     11.28054975	    -41.26496668	      6.42516800	     -0.02664325	      0.65962249	     -1.18269943	    102.21213474	    -46.98563489	     -2.59664652	     72.37825554	      0.00000000	      9.71698627	      1.26323887	      3.89301034	      0.00000000	      0.00000000	    101.99231589	    -23.90359893	     -3.68295316	     67.50114943	      0.00000000	     -9.86657894	      1.17811731	      0.22669163	      0.00000000	      0.00000000
      5.34000000	     10.47218093	    -41.28900895	      6.42480648	     -0.02669108	      0.66043506	     -1.18269476	    102.47059967	    -46.04962098	     -1.92699585	     72.17175003	      0.00000000	      9.46979660	      1.25963466	      3.79779011	      0.00000000	      0.00000000	    101.60279474	    -24.65970765	     -4.21557645	     67.37999904	      0.00000000	     -9.75102402	      1.17600283	      0.18673548	      0.00000000	      0.00000000
      5.34500000	     11.34835123	    -41.04138803	      6.22254863	     -0.02537900	      0.66139413	     -1.18312373	    101.20571571	    -47.21931124	     -3.40893009	     71.99545340	      0.00000000	      9.72304845	      1.25655771	      3.82407059	      0.00000000	      0.00000000	    101.57331996	    -23.73031970	     -3.53389225	     67.25484139	      0.00000000	     -9.86642538	      1.17381842	      0.21223942	      0.00000000	      0.00000000
      5.35000000	     11.11862313	    -41.04418006	      6.44618917	     -0.02519505	      0.66196001	     -1.18342721	    101.48159391	    -46.94946305	     -2.94355753	     71.87911208	      0.00000000	      9.72352571	      1.25452717	      3.74916314	      0.00000000	      0.00000000	    101.27137573	    -23.97460229	     -3.98473901	     67.17725288	      0.00000000	     -9.86649153	      1.17246425	      0.27387199	      0.00000000	      0.00000000
      5.35500000	     10.33188799	    -41.03486389	      6.43413885	     -0.02518516	      0.66270623	     -1.18338944	    101.70367034	    -46.04968467	     -2.28776856	     71.69494376	      0.00000000	      9.48192990	      1.25131283	      3.64198072	      0.00000000	      0.00000000	    100.86341817	    -24.70572356	     -4.49862971	     67.06683254	      0.00000000	     -9.75112953	      1.17053705	      0.23449845	      0.00000000	      0.00000000
      5.36000000	     11.17668104	    -40.82964854	      6.31472900	     -0.02402183	      0.66350087	     -1.18385894	    100.63831031	    -47.13920165	     -3.56556107	     71.54387376	      0.00000000	      9.73031803	      1.24867616	      3.66810905	      0.00000000	      0.00000000	    100.85990158	    -23.83140840	     -3.91254496	     66.97040998	      0.00000000	     -9.86628366	      1.16885416	      0.29680649	      0.00000000	      0.00000000
      5.36500000	     10.96473870	    -40.80032926	      6.47477744	     -0.02371270	      0.66405122	     -1.18405541	    100.79162182	    -46.91445860	     -3.22321105	     71.44130216	      0.00000000	      9.73014273	      1.24688594	      3.60858109	      0.00000000	      0.00000000	    100.55780520	    -24.05429961	     -4.28741089	     66.89126596	      0.00000000	     -9.86677292	      1.16747283	      0.32464983	      0.00000000	      0.00000000
      5.37000000	     10.92779574	    -40.72902812	      6.50583933	     -0.02324381	      0.66468640	     -1.18425142	    100.60745191	    -46.90454786	     -3.27490094	     71.31158258	      0.00000000	      9.73239151	      1.24462191	      3.57547041	      0.00000000	      0.00000000	    100.33280915	    -24.07190942	     -4.39484960	     66.80025516	      0.00000000	     -9.86672197	      1.16588439	      0.33333946	      0.00000000	      0.00000000
      5.37500000	     10.87706488	    -40.65467520	      6.50485638	     -0.02275157	      0.66531856	     -1.18442555	    100.38814164	    -46.88988802	     -3.36775703	     71.18206595	      0.00000000	      9.73404265	      1.24236142	      3.54466431	      0.00000000	      0.00000000	    100.12042210	    -24.09853040	     -4.47359726	     66.71650460	      0.00000000	     -9.86692544	      1.16442267	      0.34847164	      0.00000000	      0.00000000
      5.38000000	     10.85090336	    -40.56416715	      6.52245330	     -0.02221442	      0.66595871	     -1.18460918	    100.15680490	    -46.90307022	     -3.45985184	     71.05868919	      0.00000000	      9.73577128	      1.24020809	      3.51002760	      0.00000000	      0.00000000	     99.88141708	    -24.09968149	     -4.55938270	     66.63141776	      0.00000000	     -9.86702951	      1.16293763	      0.39124476	      0.00000000	      0.00000000
